<svg xmlns="http://www.w3.org/2000/svg" viewBox="0 0 64 64" id="Shopping"><path fill="#af4ba8" d="M51.759 12.659c-.221-.021-4.94-.371-4.94-.371s-3.28-3.271-3.639-3.631c-.36-.362-1.063-.254-1.337-.171-.039.011-.715.222-1.834.567-1.096-3.167-3.027-6.077-6.426-6.077-.094 0-.191.004-.289.01-.966-1.283-2.164-1.844-3.199-1.844-7.919 0-11.703 9.951-12.889 15.008-3.078.956-5.266 1.638-5.542 1.728-1.721.542-1.774.596-1.997 2.222C9.495 21.331 5 56.264 5 56.264l35.022 6.594L59 58.731s-6.661-45.261-6.703-45.572a.594.594 0 0 0-.538-.5zM33.034 10.88l-.002.344-6.121 1.906c1.179-4.57 3.387-6.78 5.32-7.613.485 1.226.803 2.988.803 5.363zm-3.158-7.602c.346 0 .688.116 1.018.345-2.539 1.199-5.258 4.224-6.408 10.261l-4.838 1.506c1.346-4.607 4.54-12.112 10.228-12.112zm1.365 26.912s-2.05-1.099-4.561-1.099c-3.686 0-3.872 2.324-3.872 2.908 0 3.195 8.287 4.42 8.287 11.903 0 5.888-3.714 9.678-8.726 9.678-6.012 0-9.088-3.761-9.088-3.761l1.609-5.345s3.16 2.729 5.83 2.729c1.74 0 2.449-1.38 2.449-2.387 0-4.168-6.799-4.354-6.799-11.203 0-5.761 4.116-11.341 12.428-11.341 3.199 0 4.783.923 4.783.923l-2.34 6.995zm3.869-19.612.002-.644c0-1.966-.273-3.551-.709-4.807 1.752.219 2.919 2.223 3.67 4.528-.879.276-1.879.586-2.963.923z" class="color95c675 svgShape"></path><path fill="#b259ac" d="M51.759 12.659c-.221-.021-4.94-.371-4.94-.371s-3.28-3.271-3.639-3.631c-.36-.362-1.063-.254-1.337-.171-.039.011-.715.222-1.834.567-1.096-3.167-3.027-6.077-6.426-6.077-.094 0-.191.004-.289.01-.966-1.283-2.164-1.844-3.199-1.844-7.919 0-9.873 9.951-11.059 15.008-3.078.956-5.44 6.219-5.719 6.307-1.719.542-1.772.596-1.996 2.223C11.148 25.91 5 56.264 5 56.264l35.022 6.594L59 58.731s-6.661-45.261-6.703-45.572a.594.594 0 0 0-.538-.5zM33.034 10.88l-.002.344-6.121 1.906c1.179-4.57 3.387-6.78 5.32-7.613.485 1.226.803 2.988.803 5.363zm-3.158-7.602c.346 0 .688.116 1.018.345-2.539 1.199-5.258 4.224-6.408 10.261l-4.838 1.506c1.346-4.607 4.54-12.112 10.228-12.112zm1.365 26.912s-2.05-1.099-4.561-1.099c-3.686 0-3.872 2.324-3.872 2.908 0 3.195 8.287 4.42 8.287 11.903 0 5.888-3.714 9.678-8.726 9.678-6.012 0-9.088-3.761-9.088-3.761l1.609-5.345s3.16 2.729 5.83 2.729c1.74 0 2.449-1.38 2.449-2.387 0-4.168-6.799-4.354-6.799-11.203 0-5.761 4.116-11.341 12.428-11.341 3.199 0 4.783.923 4.783.923l-2.34 6.995zm3.869-19.612.002-.644c0-1.966-.273-3.551-.709-4.807 1.752.219 2.919 2.223 3.67 4.528-.879.276-1.879.586-2.963.923z" class="color79b259 svgShape"></path><path fill="#932c8c" d="M40.022 62.857 59 58.731s-6.661-45.261-6.703-45.572a.592.592 0 0 0-.538-.5c-.221-.021-4.94-.371-4.94-.371s-3.28-3.271-3.639-3.631c-.192-.194-.479-.249-.75-.251-.72 1.22-.571 3.537-.571 3.537l-2.232 50.839.395.075z" class="color55932c svgShape"></path><path fill="#7a2b74" d="M33.583 2.977c-.094 0-.191.004-.289.01-.966-1.283-2.164-1.844-3.199-1.844-7.887 0-11.674 9.873-12.875 14.947l2.447-.759c1.354-4.609 4.545-12.053 10.209-12.053.346 0 .688.116 1.018.345-2.532 1.195-5.244 4.209-6.398 10.213l2.43-.75c1.182-4.541 3.381-6.739 5.307-7.569.484 1.227.803 2.988.803 5.363 0 .108 0 .211-.002.314l2.078-.643.002-.617c0-1.966-.273-3.551-.709-4.807 1.746.218 2.912 2.213 3.662 4.508l1.938-.601c-1.099-3.158-3.029-6.057-6.422-6.057z" class="color4a7a2b svgShape"></path><path fill="#822a7c" d="M47.611 12.348c-.474-.037-.793-.06-.793-.06s-3.28-3.271-3.639-3.631c-.192-.194-.479-.249-.75-.251-.72 1.22-.571 3.537-.571 3.537l-2.232 50.839.396.075 10.098-2.196-2.509-48.313z" class="color4c822a svgShape"></path></svg>